# xmcd
#
# Track frame offsets: 
#        150
#        10527
#        23365
#        34893
#        44660
#        60164
#        72832
#        83596
#        96315
#        109080
#        122036
#        133755
#        145081
#        156529
#        166977
#        178004
#        188803
#        202086
#        212443
#        225344
#        238013
#        249504
#        261834
#        272382
#        283566
#        293621
#        306752
#
# Disc length: 4171 seconds
#
# Revision: 0
# Processed by: cddbd v1.5.2PL0 Copyright (c) Steve Scherf et al.
# Submitted via: ExactAudioCopy v0.95b3
#
DISCID=7210491b
DTITLE=The Beatles  - Rubber Soul - Purple Chick 06  Disc 1 - stereo  
DTITLE=FLAC
DYEAR=1900
DGENRE=
TTITLE0=We Can Work It Out (stereo)
TTITLE1=Day Tripper (stereo)
TTITLE2=Drive My Car (stereo)
TTITLE3=Norwegian Wood (This Bird Has Flown) (stereo)
TTITLE4=You Won't See Me (stereo)
TTITLE5=Nowhere Man (stereo)
TTITLE6=Think For Yourself (stereo)
TTITLE7=The Word (stereo)
TTITLE8=Michelle (stereo)
TTITLE9=What Goes On (stereo)
TTITLE10=Girl (stereo)
TTITLE11=I'm Looking Through You (stereo)
TTITLE12=In My Life (stereo)
TTITLE13=Wait (stereo)
TTITLE14=If I Needed Someone (stereo)
TTITLE15=Run For Your Life (stereo)
TTITLE16=12-Bar Original (stereo)
TTITLE17=We Can Work It Out (US stereo)
TTITLE18=Day Tripper (US stereo)
TTITLE19=The Word (US stereo)
TTITLE20=I'm Looking Through You (US stereo)
TTITLE21=Nowhere Man (YSS)
TTITLE22=Think For Yourself (YSS)
TTITLE23=In My Life (Ant DVD)
TTITLE24=We Can Work It Out (Ant DVD)
TTITLE25=Day Tripper (Ant DVD)
TTITLE26=Ant medley
EXTD=
EXTT0=
EXTT1=
EXTT2=
EXTT3=
EXTT4=
EXTT5=
EXTT6=
EXTT7=
EXTT8=
EXTT9=
EXTT10=
EXTT11=
EXTT12=
EXTT13=
EXTT14=
EXTT15=
EXTT16=
EXTT17=
EXTT18=
EXTT19=
EXTT20=
EXTT21=
EXTT22=
EXTT23=
EXTT24=
EXTT25=
EXTT26=
PLAYORDER=
